<svg xmlns="http://www.w3.org/2000/svg" width="31" height="25.188" viewBox="0 0 31 25.188">
  <g id="Group_2660" data-name="Group 2660" transform="translate(-299 -6553.781)">
    <g id="twitter" transform="translate(299 6505.781)">
      <g id="Group_2635" data-name="Group 2635" transform="translate(0 48)">
        <path id="Path_31" data-name="Path 31" d="M31,50.982a13.25,13.25,0,0,1-3.662,1,6.32,6.32,0,0,0,2.8-3.513,12.7,12.7,0,0,1-4.03,1.538,6.355,6.355,0,0,0-10.993,4.346,6.544,6.544,0,0,0,.147,1.449,17.989,17.989,0,0,1-13.1-6.648,6.357,6.357,0,0,0,1.953,8.494A6.276,6.276,0,0,1,1.24,56.87v.07a6.385,6.385,0,0,0,5.092,6.245,6.343,6.343,0,0,1-1.666.209,5.619,5.619,0,0,1-1.2-.109A6.416,6.416,0,0,0,9.4,67.712a12.77,12.77,0,0,1-7.88,2.711A11.9,11.9,0,0,1,0,70.336a17.892,17.892,0,0,0,9.75,2.852c11.695,0,18.089-9.688,18.089-18.085,0-.281-.01-.552-.023-.821A12.678,12.678,0,0,0,31,50.982Z" transform="translate(0 -48)" fill="#fff"/>
      </g>
    </g>
  </g>
</svg>
